<svg width="256.000000" height="278.000000" viewBox="0 0 256 278" fill="none" xmlns="http://www.w3.org/2000/svg" xmlns:xlink="http://www.w3.org/1999/xlink">
	<desc>
			Created with Pixso.
	</desc>
	<defs>
		<clipPath id="clip2_14835">
			<rect id="electron" width="256.000000" height="278.000000" fill="white" fill-opacity="0"/>
		</clipPath>
	</defs>
	<rect id="electron" width="256.000000" height="278.000000" fill="#FFFFFF" fill-opacity="0"/>
	<g clip-path="url(#clip2_14835)">
		<path id="Vector" d="M90.31 59.64C54.05 53.04 25.38 59.95 13.95 79.74C5.42 94.51 7.86 114.09 19.86 135.03C20.88 136.81 23.15 137.42 24.94 136.4C26.72 135.38 27.33 133.11 26.31 131.33C15.5 112.47 13.4 95.57 20.39 83.46C29.88 67.02 55.46 60.85 88.98 66.96C91 67.33 92.94 65.99 93.3 63.97C93.67 61.94 92.33 60.01 90.31 59.64ZM143.94 25.96C140.98 31.68 135.01 35.59 128.12 35.59C118.29 35.59 110.33 27.62 110.33 17.79C110.33 7.96 118.29 0 128.12 0C137.95 0 145.92 7.96 145.92 17.79C145.92 18.05 145.92 18.31 145.91 18.56C175.37 33.8 195.84 85.76 195.84 145.79C195.84 170.48 192.39 194.17 185.96 214.71C185.35 216.67 183.26 217.76 181.3 217.14C179.34 216.53 178.25 214.45 178.86 212.49C185.06 192.68 188.4 169.74 188.4 145.79C188.4 89.26 169.61 40.62 143.94 25.96ZM16.46 193.31C16.9 193.28 17.35 193.27 17.79 193.27C27.62 193.27 35.59 201.23 35.59 211.06C35.59 220.89 27.62 228.86 17.79 228.86C7.96 228.86 0 220.89 0 211.06C0 204.37 3.69 198.54 9.15 195.5C6.47 162.24 41.43 117.65 94.27 87.14C116.21 74.47 139.06 65.48 160.53 60.88C162.54 60.45 164.52 61.73 164.95 63.74C165.38 65.74 164.1 67.72 162.09 68.15C141.4 72.58 119.27 81.29 97.98 93.58C48.23 122.31 15.32 163.72 16.46 193.31ZM222.72 219.86C221.24 217.27 220.4 214.26 220.4 211.06C220.4 201.23 228.37 193.27 238.2 193.27C248.03 193.27 256 201.23 256 211.06C256 220.89 248.03 228.86 238.2 228.86C234.32 228.86 230.74 227.62 227.82 225.52C199.43 242.23 145.19 233.71 94.16 204.24C72.43 191.7 53.38 176.58 38.72 160.47C37.34 158.95 37.45 156.6 38.97 155.22C40.48 153.83 42.84 153.95 44.22 155.46C58.35 171 76.8 185.63 97.87 197.8C146.04 225.61 196.76 233.88 222.72 219.86L222.72 219.86ZM221.56 155.95C220.23 157.51 217.88 157.71 216.32 156.38C214.75 155.06 214.55 152.71 215.88 151.14C237.83 125.22 245.22 100.06 235.75 83.65C228.87 71.74 213.59 65.13 192.39 64.85C190.33 64.83 188.69 63.14 188.72 61.09C188.74 59.03 190.43 57.39 192.48 57.42C216.06 57.72 233.8 65.4 242.19 79.93C253.59 99.68 245.3 127.9 221.56 155.95ZM72.56 221.49C71.87 219.55 72.87 217.43 74.81 216.73C76.74 216.04 78.87 217.05 79.56 218.98C91.04 251.02 109.15 270.06 128.12 270.06C141.77 270.06 155.03 260.29 165.83 242.32C166.89 240.56 169.18 239.99 170.94 241.05C172.7 242.11 173.27 244.39 172.21 246.15C160.19 266.14 144.78 277.5 128.12 277.5C105.28 277.5 84.97 256.15 72.56 221.49ZM248.56 211.06C248.56 205.34 243.92 200.7 238.2 200.7C232.48 200.7 227.84 205.34 227.84 211.06C227.84 216.79 232.48 221.42 238.2 221.42C243.92 221.42 248.56 216.79 248.56 211.06ZM17.79 221.42C23.51 221.42 28.15 216.79 28.15 211.06C28.15 205.34 23.51 200.7 17.79 200.7C12.07 200.7 7.43 205.34 7.43 211.06C7.43 216.79 12.07 221.42 17.79 221.42ZM128.12 28.15C133.85 28.15 138.48 23.51 138.48 17.79C138.48 12.07 133.85 7.43 128.12 7.43C122.4 7.43 117.76 12.07 117.76 17.79C117.76 23.51 122.4 28.15 128.12 28.15ZM130.84 158.37C123.89 159.88 117.04 155.46 115.54 148.5C114.04 141.55 118.45 134.71 125.4 133.2C132.36 131.7 139.2 136.12 140.71 143.07C142.21 150.02 137.79 156.87 130.84 158.37Z" fill="#1ABC9C" fill-opacity="1.000000" fill-rule="evenodd"/>
	</g>
</svg>
